HIERARCHY
ROOT Hips
{
	OFFSET 0.00000 0.00000 0.00000
	CHANNELS 6 Xposition Yposition Zposition Zrotation Yrotation Xrotation 
	JOINT LHipJoint
	{
		OFFSET 0 0 0
		CHANNELS 3 Zrotation Yrotation Xrotation
		JOINT LeftHip
		{
			OFFSET 1.64577 -1.42384 0.94276
			CHANNELS 3 Zrotation Yrotation Xrotation
			JOINT LeftKnee
			{
				OFFSET 2.11538 -5.81197 0.00000
				CHANNELS 3 Zrotation Yrotation Xrotation
				JOINT LeftAnkle
				{
					OFFSET 2.36541 -6.49893 0.00000
					CHANNELS 3 Zrotation Yrotation Xrotation
					JOINT LeftToe
					{
						OFFSET 0.17759 -0.48793 1.73865
						CHANNELS 3 Zrotation Yrotation Xrotation
						End Site
						{
							OFFSET 0.00000 -0.00000 0.91205
						}
					}
				}
			}
		}
	}
	JOINT RHipJoint
	{
		OFFSET 0 0 0
		CHANNELS 3 Zrotation Yrotation Xrotation
		JOINT RightHip
		{
			OFFSET -1.43750 -1.42384 0.94276
			CHANNELS 3 Zrotation Yrotation Xrotation
			JOINT RightKnee
			{
				OFFSET -2.10480 -5.78291 0.00000
				CHANNELS 3 Zrotation Yrotation Xrotation
				JOINT RightAnkle
				{
					OFFSET -2.34880 -6.45329 0.00000
					CHANNELS 3 Zrotation Yrotation Xrotation
					JOINT RightToe
					{
						OFFSET -0.22842 -0.62757 1.80469
						CHANNELS 3 Zrotation Yrotation Xrotation
						End Site
						{
							OFFSET -0.00000 -0.00000 0.95886
						}
					}
				}
			}
		}
	}
	JOINT lowerback
	{
		OFFSET 0 0 0
		CHANNELS 3 Zrotation Yrotation Xrotation
		JOINT Chest
		{
			OFFSET 0.06217 1.93758 -0.49272
			CHANNELS 3 Zrotation Yrotation Xrotation
			JOINT Chest2
			{
				OFFSET -0.03114 2.03621 -0.05830
				CHANNELS 3 Zrotation Yrotation Xrotation
				JOINT lowerneck
				{
					OFFSET 0 0 0
					CHANNELS 3 Zrotation Yrotation Xrotation
					JOINT Neck
					{
						OFFSET 0.04421 1.41010 0.26562
						CHANNELS 3 Zrotation Yrotation Xrotation
						JOINT Head
						{
							OFFSET -0.13407 1.43847 0.06181
							CHANNELS 3 Zrotation Yrotation Xrotation
							End Site
							{
								OFFSET -0.04980 1.45844 -0.00689
							}
						}
					}
				}
				JOINT LeftCollar
				{
					OFFSET 0 0 0
					CHANNELS 3 Zrotation Yrotation Xrotation
					JOINT LeftShoulder
					{
						OFFSET 2.18382 1.47753 -0.35694
CHANNELS 3 Zrotation Xrotation Yrotation
						JOINT LeftElbow
						{
OFFSET 0 -5.054600 0.000000
CHANNELS 3 Zrotation Xrotation Yrotation
							JOINT LeftWrist
							{
OFFSET 0 -3.390130 0.000000
CHANNELS 3 Zrotation Xrotation Yrotation
								JOINT lhand
								{
									OFFSET 0 0 0
CHANNELS 3 Zrotation Xrotation Yrotation
									JOINT LFingers
									{
OFFSET 0 -0.572420 -0.000000
CHANNELS 3 Zrotation Xrotation Yrotation
										End Site
										{
OFFSET 0 -0.461500 -0.000000
										}
									}
								}
								JOINT LThumb
								{
OFFSET 0 0.000000 0.000000
CHANNELS 3 Zrotation Xrotation Yrotation
									End Site
									{
OFFSET 0 -0.468550 0.468550
									}
								}
							}
						}
					}
				}
				JOINT RightCollar
				{
					OFFSET 0 0 0
					CHANNELS 3 Zrotation Yrotation Xrotation
					JOINT RightShoulder
					{
						OFFSET -2.06033 1.72839 -0.47437
CHANNELS 3 Zrotation Xrotation Yrotation
						JOINT RightElbow
						{
OFFSET 0 -5.070100 0.000000
CHANNELS 3 Zrotation Xrotation Yrotation
							JOINT RightWrist
							{
OFFSET 0 -3.149570 -0.000000
CHANNELS 3 Zrotation Xrotation Yrotation
								JOINT rhand
								{
									OFFSET 0 0 0
CHANNELS 3 Zrotation Xrotation Yrotation
									JOINT RFingers
									{
OFFSET 0 -0.718190 -0.000000
CHANNELS 3 Zrotation Xrotation Yrotation
										End Site
										{
OFFSET 0 -0.579020 -0.000000
										}
									}
								}
								JOINT RThumb
								{
OFFSET 0 0.000000 0.000000
CHANNELS 3 Zrotation Xrotation Yrotation
									End Site
									{
OFFSET 0 -0.587860 0.587860
									}
								}
							}
						}
					}
				}
			}
		}
	}
}
MOTION
Frames: 14
Frame Time: .0083333
27.7447 15.1183 -0.0346 70.2546 -84.5524 -73.5206 0.0000 0.0000 0.0000 -32.2105 -0.1773 20.8538 0.1101 2.1397 5.8918 0.5537 10.5641 -21.6021 0.0862 -1.8932 -5.2107 0.0000 0.0000 0.0000 14.3175 27.9758 -19.0489 -2.3935 -9.6417 27.8240 -3.6724 -17.9153 -45.4430 -0.0089 0.6097 -1.6756 -5.1327 0.7169 4.2748 -1.3511 0.7299 5.0831 1.4634 0.1609 2.8046 7.1428 3.1853 -8.6437 -3.1661 3.3975 24.0515 -1.9707 1.7104 9.1487 0.0000 0.0000 0.0000 9.9097 -4.5211 -41.0418 21.6465 -32.5753 6.3945 20.3163 -2.5639 -9.3276 0.0 0.0 0.0 -7.1250 0.0 0.0 -5.8053 39.8494 -0.7399 0.0000 0.0000 0.0000 -5.831 9.4961 34.8815 -23.9388 -35.0994 -7.6713 -9.9271 -19.2497 -2.0843 0.0 0.0 0.0 7.1250 0.0 -0.0 12.7741 27.7824 5.4737
27.5219 15.0800 -0.0527 69.8007 -84.4681 -73.1960 0.0000 0.0000 0.0000 -32.4361 -0.4888 20.0227 0.2762 3.3803 9.3395 0.7137 10.2852 -22.8185 0.1048 -2.0879 -5.7485 0.0000 0.0000 0.0000 14.7459 26.5898 -18.9402 -2.4383 -9.7249 28.0905 -3.1042 -18.2651 -43.3537 -0.0298 1.1145 -3.0638 -4.9939 0.6054 4.2929 -1.3032 0.5832 5.1108 1.4380 0.0902 2.8323 7.1951 3.2853 -8.8121 -3.2702 3.5360 24.3021 -2.0009 1.7670 9.2792 0.0000 0.0000 0.0000 9.7232 -4.0856 -40.3732 21.5146 -32.4241 6.3236 19.6079 -1.3992 -10.9071 0.0 0.0 0.0 -7.1250 0.0 0.0 -6.6714 41.4485 -0.5874 0.0000 0.0000 0.0000 -6.3455 9.7274 35.1182 -24.3885 -35.5723 -7.9314 -11.3362 -19.5055 -1.8976 0.0 0.0 0.0 7.1250 0.0 -0.0 11.7246 27.9735 4.9511
27.2941 15.0698 -0.0721 68.4271 -84.2952 -72.0212 0.0000 0.0000 0.0000 -32.6129 -1.0486 18.9082 0.5682 4.8275 13.4174 0.7357 10.2396 -22.9732 0.1917 -2.8200 -7.7779 0.0000 0.0000 0.0000 15.2351 24.1851 -18.7672 -2.5082 -9.8529 28.5016 -2.6086 -18.0732 -41.0359 -0.0269 1.0579 -2.9082 -4.7408 0.5233 4.3592 -1.3210 0.4755 5.1500 1.2801 0.0437 2.8429 7.0801 3.2756 -8.7505 -3.2237 3.5356 24.2923 -1.9661 1.7614 9.2605 0.0000 -0.0000 0.0000 9.6021 -3.6189 -39.8898 21.0560 -31.8937 6.0795 19.3327 -0.1142 -11.2192 0.0 0.0 0.0 -7.1250 0.0 0.0 -6.9683 41.7488 -0.5619 0.0000 -0.0000 0.0000 -6.5163 9.992 34.6493 -24.6894 -35.8848 -8.1071 -11.6632 -20.0654 -1.4589 0.0 0.0 0.0 7.1250 0.0 -0.0 11.5214 28.4135 4.7394
27.0703 15.0547 -0.0910 67.2995 -84.3937 -71.0541 0.0000 0.0000 0.0000 -32.1772 -0.6079 17.5892 0.9183 6.1055 17.0910 0.7723 9.5293 -22.6622 0.3023 -3.5351 -9.7723 0.0000 0.0000 0.0000 15.8290 22.5270 -18.5659 -2.5624 -9.9506 28.8168 -2.2131 -18.0449 -39.1670 -0.0211 0.9380 -2.5782 -4.3008 0.4309 4.4512 -1.2303 0.3568 5.1774 1.1300 -0.0024 2.8257 7.0310 3.3340 -8.7871 -3.2839 3.6367 24.3857 -1.9681 1.7971 9.3056 -0.0000 0.0000 0.0000 9.3659 -3.1681 -39.2188 20.6748 -31.4468 5.8793 19.1164 0.7396 -11.0502 0.0 0.0 0.0 -7.1250 0.0 0.0 -7.1295 41.5516 -0.6099 -0.0000 0.0000 0.0000 -6.8305 10.1297 34.4292 -24.8781 -36.0792 -8.218 -12.2396 -20.5991 -1.2194 0.0 0.0 0.0 7.1250 0.0 -0.0 11.1050 28.6571 4.4965
26.8487 15.0491 -0.1106 66.1418 -84.6427 -70.0445 0.0000 0.0000 0.0000 -31.5288 -0.1851 15.9137 1.4106 7.5121 21.2416 0.7319 8.9965 -21.8299 0.4610 -4.3553 -12.0784 0.0000 0.0000 0.0000 16.5414 20.7210 -18.4130 -2.6185 -10.0503 29.1397 -1.8086 -17.9657 -37.0869 -0.0185 0.8791 -2.4162 -3.6859 0.3590 4.5953 -1.1055 0.2673 5.1879 0.9166 -0.0275 2.7590 6.9638 3.3856 -8.8208 -3.3356 3.7294 24.4942 -1.9651 1.8279 9.3545 0.0000 0.0000 0.0000 9.0812 -2.7019 -38.4539 20.2167 -30.9025 5.6422 19.0449 1.4973 -10.2881 0.0 0.0 0.0 -7.1250 0.0 0.0 -7.0616 40.7494 -0.7444 0.0000 0.0000 0.0000 -7.0714 10.1757 34.0621 -24.8700 -36.0708 -8.2132 -12.9213 -21.231 -1.0965 0.0 0.0 0.0 7.1250 0.0 -0.0 10.5936 28.7851 4.2499
26.6302 15.0533 -0.1315 65.3513 -85.0122 -69.3581 0.0000 0.0000 0.0000 -30.6740 0.2877 13.8175 2.0725 9.0154 25.8435 0.6305 8.4883 -20.4107 0.6624 -5.2051 -14.4945 0.0000 0.0000 0.0000 17.3276 18.8653 -18.2459 -2.6511 -10.1076 29.3260 -1.4371 -17.7514 -34.9012 -0.0163 0.8248 -2.2669 -2.9675 0.3166 4.7583 -0.9523 0.2208 5.1812 0.6737 -0.0279 2.6614 6.9117 3.4389 -8.8555 -3.4162 3.8292 24.6001 -1.9738 1.8603 9.4041 0.0000 0.0000 0.0000 8.7372 -2.224 -37.5627 19.7107 -30.2923 5.3847 19.1196 2.081 -8.9557 0.0 0.0 0.0 -7.1250 0.0 0.0 -6.7860 39.3626 -0.9478 0.0000 0.0000 0.0000 -7.2584 10.0994 33.6156 -24.6385 -35.8322 -8.0773 -13.7116 -21.9296 -1.0159 0.0 0.0 0.0 7.1250 0.0 -0.0 9.9926 28.8713 3.981
26.4167 15.0658 -0.1547 64.9199 -85.4523 -68.9875 0.0000 0.0000 0.0000 -29.6399 0.8031 11.2700 2.9372 10.5926 30.9180 0.4964 7.8340 -18.4146 0.8608 -5.9163 -16.5417 0.0000 0.0000 0.0000 18.1469 17.0307 -18.0743 -2.6689 -10.1387 29.4271 -1.1377 -17.3588 -32.7851 -0.0173 0.8504 -2.3373 -2.2250 0.3042 4.9486 -0.7787 0.2162 5.1655 0.4368 -0.0074 2.5384 6.8801 3.4878 -8.9031 -3.5279 3.9266 24.7090 -1.9970 1.8901 9.4582 0.0000 0.0000 0.0000 8.3409 -1.7455 -36.5548 19.1969 -29.6626 5.1279 19.2375 2.5071 -7.4361 0.0 0.0 0.0 -7.1250 0.0 0.0 -6.4721 37.7784 -1.1564 0.0000 0.0000 0.0000 -7.4116 9.8878 33.1384 -24.1997 -35.3747 -7.8219 -14.6412 -22.6342 -0.935 0.0 0.0 0.0 7.1250 0.0 -0.0 9.2821 28.9587 3.6712
26.2088 15.0848 -0.1811 64.8097 -85.9010 -68.8999 0.0000 0.0000 0.0000 -28.4868 1.3092 8.3119 4.0206 12.1878 36.3997 0.3531 6.9976 -15.9237 1.0132 -6.4045 -17.9625 0.0000 0.0000 0.0000 18.9630 15.2414 -17.8442 -2.6658 -10.1333 29.4095 -0.9213 -16.7809 -30.8407 -0.0212 0.9406 -2.5855 -1.5352 0.3222 5.1560 -0.6012 0.2528 5.1546 0.2319 0.0307 2.4111 6.9142 3.5343 -8.9834 -3.6905 4.0204 24.8119 -2.0488 1.9189 9.5191 -0.0000 0.0000 0.0000 7.9223 -1.2774 -35.4907 18.7173 -29.0658 4.8927 19.219 2.9401 -6.4929 0.0 0.0 0.0 -7.1250 0.0 0.0 -6.3687 36.7871 -1.293 -0.0000 0.0000 0.0000 -7.5519 9.567 32.6879 -23.6277 -34.7681 -7.4932 -15.6276 -23.2586 -0.7786 0.0 0.0 0.0 7.1250 0.0 -0.0 8.5316 29.1237 3.3342
26.0079 15.1082 -0.2110 64.2662 -86.3185 -68.3731 0.0000 0.0000 0.0000 -27.2585 1.7075 5.0484 5.3234 13.7390 42.2020 0.2224 6.0371 -13.1261 1.0504 -6.5173 -18.2929 0.0000 0.0000 0.0000 19.7652 13.5405 -17.4843 -2.6362 -10.0814 29.2408 -0.7900 -16.1268 -29.2704 -0.0301 1.1193 -3.0771 -0.9147 0.3673 5.3997 -0.4346 0.3247 5.1682 0.0526 0.0827 2.2902 7.0267 3.5539 -9.0586 -3.8780 4.0703 24.8501 -2.1269 1.9329 9.5563 0.0000 0.0000 0.0000 7.5346 -0.8488 -34.5011 18.2938 -28.5317 4.6887 19.0452 3.3371 -6.1978 0.0 0.0 0.0 -7.1250 0.0 0.0 -6.4789 36.4674 -1.3665 0.0000 0.0000 0.0000 -7.6821 9.1882 32.3117 -23.0225 -34.1135 -7.1509 -16.5772 -23.6834 -0.447 0.0 0.0 0.0 7.1250 0.0 -0.0 7.8200 29.4708 2.986
25.8149 15.1352 -0.2446 62.1952 -86.7081 -66.3509 0.0000 0.0000 0.0000 -25.9653 1.9198 1.5739 6.8271 15.1845 48.2173 0.1263 5.0731 -10.4317 1.0328 -6.4639 -18.1366 0.0000 0.0000 0.0000 20.5796 11.9783 -16.9273 -2.5756 -9.9741 28.8929 -0.7218 -15.5320 -28.1528 -0.0414 1.3134 -3.6117 -0.3416 0.4315 5.7085 -0.2702 0.4209 5.2273 -0.1042 0.1436 2.1819 7.2038 3.5260 -9.1212 -4.0576 4.0423 24.8069 -2.2214 1.9187 9.5589 -0.0000 0.0000 0.0000 7.1973 -0.5055 -33.693 17.9231 -28.0586 4.513 18.7845 3.6337 -6.5052 0.0 0.0 0.0 -7.1250 0.0 0.0 -6.7349 36.7745 -1.3703 -0.0000 0.0000 0.0000 -7.8448 8.797 32.1116 -22.4772 -33.5122 -6.8475 -17.3956 -23.8336 0.1049 0.0 0.0 0.0 7.1250 0.0 -0.0 7.2229 30.0493 2.6542
25.6300 15.1645 -0.2802 58.0820 -87.0567 -62.3343 0.0000 0.0000 0.0000 -24.6568 1.9204 -2.0262 8.4929 16.4701 54.3191 0.0732 4.2578 -8.3638 1.0101 -6.3949 -17.9345 0.0000 0.0000 0.0000 21.3909 10.5775 -16.1665 -2.4849 -9.8104 28.3649 -0.6794 -15.0986 -27.3745 -0.0522 1.4747 -4.0561 0.1936 0.5101 6.0840 -0.1090 0.5354 5.3389 -0.2450 0.2108 2.0930 7.4528 3.4524 -9.1538 -4.2116 3.9333 24.6690 -2.3273 1.8774 9.5183 0.0000 -0.0000 0.0000 6.9116 -0.2772 -33.108 17.5886 -27.6271 4.3568 18.5578 3.7611 -7.0784 0.0 0.0 0.0 -7.1250 0.0 0.0 -6.9997 37.3601 -1.3239 0.0000 -0.0000 0.0000 -8.0969 8.4383 32.2176 -22.0660 -33.0515 -6.6218 -17.9906 -23.672 0.8695 0.0 0.0 0.0 7.1250 0.0 -0.0 6.8134 30.8531 2.3699
25.4533 15.1962 -0.3166 51.8528 -87.3062 -56.2462 0.0000 0.0000 0.0000 -23.4137 1.6815 -5.7384 10.2666 17.5571 60.3758 0.0574 3.6273 -7.2576 1.0241 -6.4377 -18.0599 0.0000 0.0000 0.0000 22.1397 9.3335 -15.2308 -2.3687 -9.5952 27.6754 -0.6559 -14.7913 -26.8665 -0.0606 1.5884 -4.3696 0.6825 0.6056 6.5210 0.0209 0.6721 5.4928 -0.3944 0.2871 2.0166 7.7530 3.3108 -9.1158 -4.2706 3.7013 24.4341 -2.4219 1.7944 9.4211 0.0000 -0.0000 0.0000 6.7048 -0.1743 -32.7775 17.2661 -27.2073 4.2083 18.4852 3.7017 -7.4717 0.0 0.0 0.0 -7.1250 0.0 0.0 -7.1146 37.7661 -1.2747 0.0000 -0.0000 0.0000 -8.4426 8.16 32.6898 -21.8358 -32.791 -6.4967 -18.3381 -23.2195 1.7005 0.0 0.0 0.0 7.1250 0.0 -0.0 6.6044 31.7277 2.1568
25.2846 15.2291 -0.3528 44.5705 -87.4113 -49.1414 0.0000 0.0000 0.0000 -22.3004 1.2553 -9.5311 12.0876 18.4274 66.2662 0.0675 3.2139 -7.1429 1.0695 -6.5744 -18.4605 0.0000 0.0000 0.0000 22.7765 8.2697 -14.1584 -2.2371 -9.3434 26.8755 -0.6426 -14.6227 -26.5827 -0.0636 1.6277 -4.4780 1.1068 0.7245 6.9946 0.0988 0.8390 5.6842 -0.5640 0.3768 1.9619 8.0968 3.1066 -9.0271 -4.2034 3.3465 24.1591 -2.4929 1.6706 9.2908 -0.0000 0.0000 0.0000 6.5893 -0.2039 -32.6989 16.9344 -26.7712 4.0577 18.6135 3.5187 -7.4647 0.0 0.0 0.0 -7.1250 0.0 0.0 -7.0049 37.7672 -1.2546 -0.0000 0.0000 0.0000 -8.8766 7.9736 33.5259 -21.8015 -32.752 -6.4781 -18.4595 -22.5684 2.4404 0.0 0.0 0.0 7.1250 0.0 -0.0 6.5703 32.5051 2.0218
25.1234 15.2629 -0.3879 38.2307 -87.3572 -42.9964 0.0000 0.0000 0.0000 -21.3686 0.7006 -13.3972 13.8993 19.0832 71.8966 0.1014 2.9622 -7.8569 1.1454 -6.7958 -19.1118 0.0000 0.0000 0.0000 23.2604 7.4103 -12.9899 -2.0991 -9.0695 26.0131 -0.6299 -14.6232 -26.4839 -0.0616 1.6020 -4.4069 1.4194 0.8580 7.4672 0.1289 1.0211 5.9130 -0.7225 0.4714 1.9487 8.4604 2.8696 -8.9241 -4.0308 2.9196 23.8739 -2.5375 1.5239 9.1486 0.0000 0.0000 0.0000 6.5271 -0.352 -32.7828 16.5942 -26.3197 3.9057 18.8779 3.3042 -7.0307 0.0 0.0 0.0 -7.1250 0.0 0.0 -6.7234 37.3303 -1.276 0.0000 0.0000 0.0000 -9.4261 7.8418 34.6989 -21.9589 -32.9306 -6.5635 -18.3768 -21.876 2.9361 0.0 0.0 0.0 7.1250 0.0 -0.0 6.6821 33.0214 1.9728
